HIERARCHY
ROOT hip
{
  OFFSET 0 0 0
  CHANNELS 6 Xposition Yposition Zposition Zrotation Yrotation Xrotation
  JOINT abdomen
  {
    OFFSET 0 20.6881 -0.73152
    CHANNELS 3 Zrotation Xrotation Yrotation
    JOINT chest
    {
      OFFSET 0 11.7043 -0.48768
      CHANNELS 3 Zrotation Xrotation Yrotation
      JOINT neck
      {
        OFFSET 0 22.1894 -2.19456
        CHANNELS 3 Zrotation Xrotation Yrotation
        JOINT head
        {
          OFFSET -0.24384 7.07133 1.2192
          CHANNELS 3 Zrotation Xrotation Yrotation
          JOINT leftEye
          {
            OFFSET 4.14528 8.04674 8.04672
            CHANNELS 3 Zrotation Xrotation Yrotation
            End Site
            {
              OFFSET 1 0 0
            }
          }
          JOINT rightEye
          {
            OFFSET -3.6576 8.04674 8.04672
            CHANNELS 3 Zrotation Xrotation Yrotation
            End Site
            {
              OFFSET 1 0 0
            }
          }
        }
      }
      JOINT rCollar
      {
        OFFSET -2.68224 19.2634 -4.8768
        CHANNELS 3 Zrotation Xrotation Yrotation
        JOINT rShldr
        {
          OFFSET -8.77824 -1.95073 1.46304
          CHANNELS 3 Zrotation Xrotation Yrotation
          JOINT rForeArm
          {
            OFFSET -28.1742 -1.7115 0.48768
            CHANNELS 3 Zrotation Xrotation Yrotation
            JOINT rHand
            {
              OFFSET -22.5879 0.773209 7.07136
              CHANNELS 3 Zrotation Xrotation Yrotation
              JOINT rThumb1
              {
                OFFSET -1.2192 -0.487915 3.41376
                CHANNELS 3 Zrotation Xrotation Yrotation
                JOINT rThumb2
                {
                  OFFSET -3.37035 -0.52449 3.41376
                  CHANNELS 3 Zrotation Xrotation Yrotation
                  End Site
                  {
                    OFFSET -1.78271 -1.18214 1.43049
                  }
                }
              }
              JOINT rIndex1
              {
                OFFSET -7.75947 0.938293 5.60832
                CHANNELS 3 Zrotation Xrotation Yrotation
                JOINT rIndex2
                {
                  OFFSET -2.54057 -0.884171 1.56538
                  CHANNELS 3 Zrotation Xrotation Yrotation
                  End Site
                  {
                    OFFSET -1.62519 -0.234802 1.16502
                  }
                }
              }
              JOINT rMid1
              {
                OFFSET -8.24714 1.18213 3.41376
                CHANNELS 3 Zrotation Xrotation Yrotation
                JOINT rMid2
                {
                  OFFSET -3.10165 -0.590103 1.0647
                  CHANNELS 3 Zrotation Xrotation Yrotation
                  End Site
                  {
                    OFFSET -2.48547 -0.328903 0.83742
                  }
                }
              }
              JOINT rRing1
              {
                OFFSET -8.82822 0.546677 1.51678
                CHANNELS 3 Zrotation Xrotation Yrotation
                JOINT rRing2
                {
                  OFFSET -2.60934 -0.819778 -0.0198488
                  CHANNELS 3 Zrotation Xrotation Yrotation
                  End Site
                  {
                    OFFSET -2.33842 -0.294052 0.168128
                  }
                }
              }
              JOINT rPinky1
              {
                OFFSET -8.27202 -0.0477905 -0.4584
                CHANNELS 3 Zrotation Xrotation Yrotation
                JOINT rPinky2
                {
                  OFFSET -1.82734 -0.647385 -0.700984
                  CHANNELS 3 Zrotation Xrotation Yrotation
                  End Site
                  {
                    OFFSET -1.69225 -0.51767 -0.607171
                  }
                }
              }
            }
          }
        }
      }
      JOINT lCollar
      {
        OFFSET 2.68224 19.2634 -4.8768
        CHANNELS 3 Zrotation Xrotation Yrotation
        JOINT lShldr
        {
          OFFSET 8.77824 -1.95073 1.46304
          CHANNELS 3 Zrotation Xrotation Yrotation
          JOINT lForeArm
          {
            OFFSET 28.1742 -1.7115 0.48768
            CHANNELS 3 Zrotation Xrotation Yrotation
            JOINT lHand
            {
              OFFSET 22.5879 0.773209 7.07136
              CHANNELS 3 Zrotation Xrotation Yrotation
              JOINT lThumb1
              {
                OFFSET 1.2192 -0.487915 3.41376
                CHANNELS 3 Zrotation Xrotation Yrotation
                JOINT lThumb2
                {
                  OFFSET 3.37035 -0.52449 3.41376
                  CHANNELS 3 Zrotation Xrotation Yrotation
                  End Site
                  {
                    OFFSET 1.78271 -1.18214 1.43049
                  }
                }
              }
              JOINT lIndex1
              {
                OFFSET 7.75947 0.938293 5.60832
                CHANNELS 3 Zrotation Xrotation Yrotation
                JOINT lIndex2
                {
                  OFFSET 2.54057 -0.884171 1.56538
                  CHANNELS 3 Zrotation Xrotation Yrotation
                  End Site
                  {
                    OFFSET 1.62519 -0.234802 1.16502
                  }
                }
              }
              JOINT lMid1
              {
                OFFSET 8.24714 1.18213 3.41376
                CHANNELS 3 Zrotation Xrotation Yrotation
                JOINT lMid2
                {
                  OFFSET 3.10165 -0.590103 1.0647
                  CHANNELS 3 Zrotation Xrotation Yrotation
                  End Site
                  {
                    OFFSET 2.48547 -0.328903 0.83742
                  }
                }
              }
              JOINT lRing1
              {
                OFFSET 8.82822 0.546677 1.51678
                CHANNELS 3 Zrotation Xrotation Yrotation
                JOINT lRing2
                {
                  OFFSET 2.60934 -0.819778 -0.0198488
                  CHANNELS 3 Zrotation Xrotation Yrotation
                  End Site
                  {
                    OFFSET 2.33842 -0.294052 0.168128
                  }
                }
              }
              JOINT lPinky1
              {
                OFFSET 8.27202 -0.0477905 -0.4584
                CHANNELS 3 Zrotation Xrotation Yrotation
                JOINT lPinky2
                {
                  OFFSET 1.82734 -0.647385 -0.700984
                  CHANNELS 3 Zrotation Xrotation Yrotation
                  End Site
                  {
                    OFFSET 1.69225 -0.51767 -0.607171
                  }
                }
              }
            }
          }
        }
      }
    }
  }
  JOINT rButtock
  {
    OFFSET -8.77824 4.35084 1.2192
    CHANNELS 3 Zrotation Xrotation Yrotation
    JOINT rThigh
    {
      OFFSET 0 -1.70687 -2.19456
      CHANNELS 3 Zrotation Xrotation Yrotation
      JOINT rShin
      {
        OFFSET 0 -36.8199 0.73152
        CHANNELS 3 Zrotation Xrotation Yrotation
        JOINT rFoot
        {
          OFFSET 0.73152 -45.1104 -5.12064
          CHANNELS 3 Zrotation Xrotation Yrotation
          End Site
          {
            OFFSET -1.1221 -3.69964 12.103
          }
        }
      }
    }
  }
  JOINT lButtock
  {
    OFFSET 8.77824 4.35084 1.2192
    CHANNELS 3 Zrotation Xrotation Yrotation
    JOINT lThigh
    {
      OFFSET 0 -1.70687 -2.19456
      CHANNELS 3 Zrotation Xrotation Yrotation
      JOINT lShin
      {
        OFFSET 0 -36.8199 0.73152
        CHANNELS 3 Zrotation Xrotation Yrotation
        JOINT lFoot
        {
          OFFSET -0.73152 -45.1104 -5.12064
          CHANNELS 3 Zrotation Xrotation Yrotation
          End Site
          {
            OFFSET 1.1221 -3.69964 12.103
          }
        }
      }
    }
  }
}
MOTION
Frames:	6
Frame Time:	0.00833333
35.8868 134.298 -27.8697 4.0985 2.7467 1.3787 6.47482 11.4951 2.23266 -0.503216 -2.27879 0.720283 1.53376 16.5114 -3.58551 -1.19786 -6.27056 -6.80733 -0.0 0.0 0.0 -0.0 0.0 0.0 -1.44632e-13 -4.98264e-15 -1.2227e-13 71.9605 16.3366 5.87999 -21.7929 -15.4479 43.2391 -0.0529711 6.54114 0.923378 1.14302e-09 -2.89204e-09 8.18538e-10 1.97857e-09 -5.00098e-09 1.40877e-09 1.14302e-09 -2.89204e-09 8.18531e-10 7.73091 5.47488 0.417314 1.14302e-09 -2.89204e-09 8.18545e-10 2.90554 0.965183 0.102902 1.14303e-09 -2.89204e-09 8.18539e-10 10.2786 0.731801 0.0259123 1.14302e-09 -2.89204e-09 8.18552e-10 2.22167 -0.733487 -0.20892 -1.44607e-13 -4.98102e-15 -1.22422e-13 -53.2199 28.6926 -14.7061 18.3714 -11.0902 -34.8634 0.0150429 3.36365 -0.473323 1.1693e-09 2.60979e-09 2.39873e-10 2.0209e-09 4.50919e-09 4.09155e-10 1.16929e-09 2.60979e-09 2.39886e-10 -7.73091 5.47488 -0.417314 1.1693e-09 2.60979e-09 2.39867e-10 -2.90554 0.965183 -0.102902 1.16929e-09 2.6098e-09 2.39871e-10 -10.2786 0.731801 -0.0259123 1.1693e-09 2.6098e-09 2.39865e-10 -2.22167 -0.733487 0.20892 -2.03217e-16 0.0 -3.88251e-19 -7.04939 -26.6274 -9.09673 0.0229916 29.1713 0.835487 -4.64947 -23.4476 -10.211 2.03217e-16 0.0 3.88251e-19 1.81963 -35.3539 1.06088 0.192762 27.6173 -0.46883 0.556754 5.78469 -11.3617
35.8527 134.392 -27.0779 3.8968 3.1949 1.3024 7.00723 11.3285 2.31599 -0.568278 -2.4398 0.75609 1.58709 16.6275 -3.73571 -1.1722 -6.22948 -7.07961 -0.0 0.0 0.0 -0.0 0.0 0.0 -1.08542e-13 1.71977e-14 -1.03039e-13 72.8364 16.0475 4.3121 -21.5765 -15.1307 42.6716 -0.0546144 6.62866 0.935873 5.19607e-10 -1.30274e-09 7.61495e-10 8.99901e-10 -2.25364e-09 1.31395e-09 5.1961e-10 -1.30274e-09 7.61482e-10 7.73091 5.47488 0.417314 5.19609e-10 -1.30274e-09 7.61497e-10 2.90554 0.965183 0.102902 5.19613e-10 -1.30273e-09 7.61494e-10 10.2786 0.731801 0.0259123 5.19605e-10 -1.30274e-09 7.61504e-10 2.22167 -0.733487 -0.20892 -1.08544e-13 1.71923e-14 -1.03191e-13 -54.2892 28.4348 -14.0679 18.1754 -10.8751 -34.419 0.0161203 3.41041 -0.47994 1.40443e-09 3.13439e-09 1.8269e-10 2.42904e-09 5.4189e-09 3.09244e-10 1.40443e-09 3.13439e-09 1.827e-10 -7.73091 5.47488 -0.417314 1.40443e-09 3.13439e-09 1.82685e-10 -2.90554 0.965183 -0.102902 1.40443e-09 3.13439e-09 1.82686e-10 -10.2786 0.731801 -0.0259123 1.40444e-09 3.1344e-09 1.82681e-10 -2.22167 -0.733487 0.20892 -2.03217e-16 0.0 -3.88251e-19 -6.81655 -26.4196 -9.21757 0.0253157 29.0767 0.833614 -4.73138 -23.166 -10.5339 2.03217e-16 0.0 3.88251e-19 2.44723 -35.4245 1.64095 0.193515 27.9033 -0.485513 0.762613 6.69306 -12.2445
35.8066 134.496 -26.3076 3.6353 3.5373 1.2519 7.5231 11.1733 2.3777 -0.635443 -2.58331 0.785259 1.64384 16.7173 -3.8545 -1.17502 -6.23954 -7.2981 -0.0 0.0 0.0 -0.0 0.0 0.0 -6.67101e-14 4.19121e-14 -7.73629e-14 73.6311 15.8309 2.88562 -21.3472 -14.8036 42.0706 -0.056582 6.74865 0.95297 -1.86343e-10 4.81976e-10 6.47633e-10 -3.21713e-10 8.31602e-10 1.12132e-09 -1.86342e-10 4.81981e-10 6.47614e-10 7.73091 5.47488 0.417314 -1.86344e-10 4.81979e-10 6.47629e-10 2.90554 0.965183 0.102902 -1.8634e-10 4.81981e-10 6.4763e-10 10.2786 0.731801 0.0259123 -1.86345e-10 4.81979e-10 6.47638e-10 2.22167 -0.733487 -0.20892 -6.67401e-14 4.19006e-14 -7.75132e-14 -55.3707 28.0509 -13.3593 17.9909 -10.6766 -34.0011 0.0145426 3.2555 -0.458079 1.55153e-09 3.53232e-09 1.12577e-10 2.68499e-09 6.10974e-09 1.87328e-10 1.55153e-09 3.53232e-09 1.12584e-10 -7.73091 5.47488 -0.417314 1.55154e-09 3.53232e-09 1.12573e-10 -2.90554 0.965183 -0.102902 1.55153e-09 3.53232e-09 1.1257e-10 -10.2786 0.731801 -0.0259123 1.55154e-09 3.53233e-09 1.12565e-10 -2.22167 -0.733487 0.20892 -2.03217e-16 0.0 -3.88251e-19 -6.60428 -26.3237 -9.34185 0.0251927 29.0934 0.831877 -4.76897 -22.7743 -10.8007 2.03217e-16 0.0 3.88251e-19 3.07474 -35.5241 2.17401 0.195323 28.2775 -0.502522 0.969247 7.492 -13.0643
35.7562 134.62 -25.5491 3.3561 3.773 1.2203 7.93595 11.0054 2.41739 -0.683038 -2.67379 0.806144 1.66251 16.7717 -3.94496 -1.08523 -6.23507 -7.4599 -0.0 0.0 0.0 -0.0 0.0 0.0 -3.21844e-14 5.56667e-14 -5.23798e-14 74.3503 15.6586 1.62718 -21.0853 -14.4411 41.3842 -0.0602351 6.9861 0.986775 -7.07301e-10 1.74894e-09 4.74453e-10 -1.22348e-09 3.02217e-09 8.25031e-10 -7.07302e-10 1.74895e-09 4.74431e-10 7.73091 5.47488 0.417314 -7.07304e-10 1.74895e-09 4.74447e-10 2.90554 0.965183 0.102902 -7.07301e-10 1.74895e-09 4.7445e-10 10.2786 0.731801 0.0259123 -7.07305e-10 1.74895e-09 4.74456e-10 2.22167 -0.733487 -0.20892 -3.22238e-14 5.56527e-14 -5.25288e-14 -56.4567 27.5616 -12.5878 17.8053 -10.479 -33.5851 0.0101644 2.8773 -0.404722 1.43286e-09 3.47737e-09 3.69771e-11 2.48069e-09 6.01649e-09 5.66783e-11 1.43287e-09 3.47738e-09 3.69835e-11 -7.73091 5.47488 -0.417314 1.43287e-09 3.47738e-09 3.69739e-11 -2.90554 0.965183 -0.102902 1.43286e-09 3.47738e-09 3.697e-11 -10.2786 0.731801 -0.0259123 1.43287e-09 3.47738e-09 3.69644e-11 -2.22167 -0.733487 0.20892 -2.03217e-16 0.0 -3.88251e-19 -6.47166 -26.2162 -9.44146 0.0255653 29.0867 0.827781 -4.78198 -22.3491 -11.0317 2.03217e-16 0.0 3.88251e-19 3.58079 -35.558 2.56582 0.198322 28.7031 -0.5171 1.1147 7.98338 -13.7177
35.7125 134.767 -24.796 3.1225 3.9237 1.2037 8.2301 10.814 2.44325 -0.711799 -2.69498 0.820333 1.61581 16.7636 -3.99346 -0.848413 -6.19875 -7.53772 -0.0 0.0 0.0 -0.0 0.0 0.0 -6.46579e-15 5.28948e-14 -2.60769e-14 74.993 15.54 0.564104 -20.7803 -14.0276 40.6028 -0.0670114 7.39071 1.04449 -1.00194e-09 2.34614e-09 1.82073e-10 -1.73405e-09 4.05553e-09 3.21345e-10 -1.00194e-09 2.34615e-09 1.82051e-10 7.73091 5.47488 0.417314 -1.00194e-09 2.34614e-09 1.82067e-10 2.90554 0.965183 0.102902 -1.00194e-09 2.34614e-09 1.8207e-10 10.2786 0.731801 0.0259123 -1.00194e-09 2.34614e-09 1.82077e-10 2.22167 -0.733487 -0.20892 -6.48508e-15 5.28836e-14 -2.62237e-14 -57.5528 26.9512 -11.7276 17.6261 -10.2893 -33.1894 0.00454881 2.20554 -0.310042 8.37358e-10 2.65536e-09 -5.89768e-11 1.45076e-09 4.59536e-09 -1.07931e-10 8.37358e-10 2.65537e-09 -5.89685e-11 -7.73091 5.47488 -0.417314 8.3736e-10 2.65537e-09 -5.89799e-11 -2.90554 0.965183 -0.102902 8.37358e-10 2.65537e-09 -5.89836e-11 -10.2786 0.731801 -0.0259123 8.37361e-10 2.65537e-09 -5.89896e-11 -2.22167 -0.733487 0.20892 -2.03217e-16 0.0 -3.88251e-19 -6.44255 -26.109 -9.54293 0.0257616 29.0769 0.821878 -4.75299 -21.9031 -11.1756 2.03217e-16 0.0 3.88251e-19 3.94622 -35.5271 2.79506 0.20241 29.1836 -0.528902 1.17008 8.12095 -14.1821
35.6819 134.94 -24.0444 2.9798 4.0248 1.1868 8.44894 10.6135 2.4528 -0.731233 -2.66808 0.82802 1.53092 16.7062 -4.00306 -0.536776 -6.16561 -7.54196 -0.0 0.0 0.0 -0.0 0.0 0.0 1.67454e-14 4.14492e-14 4.04713e-15 75.5673 15.4901 -0.327367 -20.4393 -13.5745 39.7545 -0.0767785 7.90812 1.11853 -1.20294e-09 2.6412e-09 -2.08437e-10 -2.08291e-09 4.56702e-09 -3.52568e-10 -1.20294e-09 2.6412e-09 -2.08456e-10 7.73091 5.47488 0.417314 -1.20294e-09 2.6412e-09 -2.08441e-10 2.90554 0.965183 0.102902 -1.20294e-09 2.6412e-09 -2.08437e-10 10.2786 0.731801 0.0259123 -1.20294e-09 2.6412e-09 -2.08429e-10 2.22167 -0.733487 -0.20892 1.67634e-14 4.14442e-14 3.90425e-15 -58.6457 26.2112 -10.7919 17.4573 -10.113 -32.8186 0.00057909 1.27323 -0.178839 -8.56373e-11 1.316e-09 -1.73638e-10 -1.46091e-10 2.27883e-09 -3.03991e-10 -8.56397e-11 1.316e-09 -1.73626e-10 -7.73091 5.47488 -0.417314 -8.56353e-11 1.316e-09 -1.73641e-10 -2.90554 0.965183 -0.102902 -8.56383e-11 1.316e-09 -1.73643e-10 -10.2786 0.731801 -0.0259123 -8.56336e-11 1.316e-09 -1.7365e-10 -2.22167 -0.733487 0.20892 -2.03217e-16 0.0 -3.88251e-19 -6.48326 -26.0532 -9.65007 0.0247164 29.1172 0.815085 -4.68079 -21.3982 -11.2417 2.03217e-16 0.0 3.88251e-19 4.23046 -35.4747 2.91022 0.207592 29.7342 -0.539311 1.15522 8.01287 -14.5071
